<svg xmlns="http://www.w3.org/2000/svg" width="202.928" height="195.717" viewBox="0 0 202.928 195.717">
  <g id="Group_376791" data-name="Group 376791" transform="translate(-894.5 -724.096)">
    <g id="Adobe_Express_logo_RGB_64px_1_" data-name="Adobe_Express_logo_RGB_64px (1)" transform="translate(895 724.596)">
      <path id="Background" d="M35.734,0h130.46a35.735,35.735,0,0,1,35.734,35.734V158.982a35.735,35.735,0,0,1-35.734,35.734H35.734A35.735,35.735,0,0,1,0,158.982V35.734A35.735,35.735,0,0,1,35.734,0Z" fill="#fff" stroke="#f5f5f5" stroke-width="1"/>
    </g>
    <path id="Path_1027434" data-name="Path 1027434" d="M90.674,26.444a24.444,24.444,0,0,0-45.031.045l-30.862,73.5a15.226,15.226,0,0,0,14.026,21.145H63.175A15.316,15.316,0,0,0,63.13,90.5c-.347,0-5.874.045-5.874.045a3.476,3.476,0,0,1-3.2-4.83l10.953-26.1a3.383,3.383,0,0,1,6.282-.019l22.352,52.259a14.8,14.8,0,0,0,14.06,9.268A15.225,15.225,0,0,0,121.728,99.95Z" transform="translate(927.703 752.164)" fill="#000b1d"/>
  </g>
</svg>
