<svg xmlns="http://www.w3.org/2000/svg" width="122.123" height="39.571" viewBox="0 0 122.123 39.571">
  <g id="Button_M_Primary_Fill" data-name="Button / M / Primary / Fill" transform="translate(-0.99 1.043)">
    <g id="Background" transform="translate(0.99 -1.043)" fill="#fff">
      <path d="M 102.337532043457 38.57066345214844 L 19.78533172607422 38.57066345214844 C 17.24888229370117 38.57066345214844 14.78884887695312 38.07411575317383 12.47354888916016 37.09483337402344 C 10.23671531677246 36.14873123168945 8.227631568908691 34.79409790039062 6.502098560333252 33.06856536865234 C 4.776565074920654 31.34303092956543 3.421931982040405 29.33394813537598 2.475831985473633 27.09711456298828 C 1.496548533439636 24.78181457519531 0.9999985694885254 22.32178115844727 0.9999985694885254 19.78533172607422 C 0.9999985694885254 17.24888229370117 1.496548533439636 14.78884792327881 2.475831985473633 12.47354793548584 C 3.421931982040405 10.23671531677246 4.776565074920654 8.227631568908691 6.502098560333252 6.502098560333252 C 8.227631568908691 4.776565074920654 10.23671531677246 3.421931743621826 12.47354888916016 2.475831747055054 C 14.78884887695312 1.496548414230347 17.24888229370117 0.9999983906745911 19.78533172607422 0.9999983906745911 L 102.337532043457 0.9999983906745911 C 104.8739852905273 0.9999983906745911 107.3340148925781 1.496548414230347 109.6493148803711 2.475831747055054 C 111.8861465454102 3.421931743621826 113.8952331542969 4.776565074920654 115.6207656860352 6.502098560333252 C 117.3462982177734 8.227631568908691 118.7009353637695 10.23671531677246 119.6470336914062 12.47354793548584 C 120.6263122558594 14.78884792327881 121.1228637695312 17.24888229370117 121.1228637695312 19.78533172607422 C 121.1228637695312 22.32178115844727 120.6263122558594 24.78181457519531 119.6470336914062 27.09711456298828 C 118.7009353637695 29.33394813537598 117.3462982177734 31.34303092956543 115.6207656860352 33.06856536865234 C 113.8952331542969 34.79409790039062 111.8861465454102 36.14873123168945 109.6493148803711 37.09483337402344 C 107.3340148925781 38.07411575317383 104.8739852905273 38.57066345214844 102.337532043457 38.57066345214844 Z" stroke="none"/>
      <path d="M 19.78533172607422 2 C 15.03469848632812 2 10.56841278076172 3.849998474121094 7.209197998046875 7.209197998046875 C 3.849998474121094 10.56841468811035 2 15.03469848632812 2 19.78533172607422 C 2 24.53596496582031 3.849998474121094 29.00224876403809 7.209197998046875 32.36146545410156 C 10.56841278076172 35.72066497802734 15.03469848632812 37.57066345214844 19.78533172607422 37.57066345214844 L 102.337532043457 37.57066345214844 C 107.0881652832031 37.57066345214844 111.5544509887695 35.72066497802734 114.9136657714844 32.36146545410156 C 118.2728652954102 29.00224876403809 120.1228637695312 24.53596496582031 120.1228637695312 19.78533172607422 C 120.1228637695312 15.03469848632812 118.2728652954102 10.56841468811035 114.9136657714844 7.209197998046875 C 111.5544509887695 3.849998474121094 107.0881652832031 2 102.337532043457 2 L 19.78533172607422 2 M 19.78533172607422 0 L 102.337532043457 0 C 113.2646636962891 0 122.1228637695312 8.858198165893555 122.1228637695312 19.78533172607422 C 122.1228637695312 30.71246528625488 113.2646636962891 39.57066345214844 102.337532043457 39.57066345214844 L 19.78533172607422 39.57066345214844 C 8.858200073242188 39.57066345214844 0 30.71246528625488 0 19.78533172607422 C 0 8.858198165893555 8.858200073242188 0 19.78533172607422 0 Z" stroke="none" fill="#f5f5f5"/>
    </g>
    <text id="Text" transform="translate(55.113 25)" fill="#000b1d" font-size="18" font-family="AdobeClean-Bold, Adobe Clean" font-weight="700"><tspan x="0" y="0">Create</tspan></text>
    <path id="Path_1027424" data-name="Path 1027424" d="M29.077,14.537a4.916,4.916,0,0,0-9.057.009L13.812,29.329a3.062,3.062,0,0,0,2.821,4.253h6.912a3.08,3.08,0,0,0-.009-6.161l-1.182.009a.7.7,0,0,1-.644-.971l2.2-5.25a.68.68,0,0,1,1.263,0l4.5,10.511A2.976,2.976,0,0,0,32.5,33.579a3.062,3.062,0,0,0,2.821-4.258Z" transform="translate(6.422 -4.011)" fill="#000b1d"/>
  </g>
</svg>
